<mxfile host="app.diagrams.net" modified="2024-03-28T19:09:11.169Z" agent="Mozilla/5.0 (Windows NT 10.0; Win64; x64) AppleWebKit/537.36 (KHTML, like Gecko) Chrome/123.0.0.0 Safari/537.36" etag="jwDiL-MUmFQGbh8KUvy1" version="23.0.2" type="github">
  <diagram id="C5RBs43oDa-KdzZeNtuy" name="Page-1">
    <mxGraphModel dx="1674" dy="746" grid="1" gridSize="10" guides="1" tooltips="1" connect="1" arrows="1" fold="1" page="1" pageScale="1" pageWidth="827" pageHeight="1169" math="0" shadow="0">
      <root>
        <mxCell id="WIyWlLk6GJQsqaUBKTNV-0" />
        <mxCell id="WIyWlLk6GJQsqaUBKTNV-1" parent="WIyWlLk6GJQsqaUBKTNV-0" />
        <mxCell id="gEnCtnAQw9CKwuesXy05-21" value="" style="edgeStyle=orthogonalEdgeStyle;rounded=0;orthogonalLoop=1;jettySize=auto;html=1;entryX=0;entryY=0.5;entryDx=0;entryDy=0;strokeColor=#FF33FF;entryPerimeter=0;" edge="1" parent="WIyWlLk6GJQsqaUBKTNV-1" source="gEnCtnAQw9CKwuesXy05-9" target="gEnCtnAQw9CKwuesXy05-45">
          <mxGeometry relative="1" as="geometry">
            <mxPoint x="560" y="390" as="targetPoint" />
          </mxGeometry>
        </mxCell>
        <mxCell id="gEnCtnAQw9CKwuesXy05-25" value="QAQC" style="edgeLabel;html=1;align=center;verticalAlign=middle;resizable=0;points=[];" vertex="1" connectable="0" parent="gEnCtnAQw9CKwuesXy05-21">
          <mxGeometry x="0.1333" y="-4" relative="1" as="geometry">
            <mxPoint as="offset" />
          </mxGeometry>
        </mxCell>
        <mxCell id="gEnCtnAQw9CKwuesXy05-9" value="&lt;br&gt;Database" style="strokeWidth=2;html=1;shape=mxgraph.flowchart.database;whiteSpace=wrap;" vertex="1" parent="WIyWlLk6GJQsqaUBKTNV-1">
          <mxGeometry x="380" y="350" width="60" height="80" as="geometry" />
        </mxCell>
        <mxCell id="gEnCtnAQw9CKwuesXy05-19" value="" style="edgeStyle=orthogonalEdgeStyle;rounded=0;orthogonalLoop=1;jettySize=auto;html=1;strokeColor=#FF33FF;" edge="1" parent="WIyWlLk6GJQsqaUBKTNV-1" source="gEnCtnAQw9CKwuesXy05-10" target="gEnCtnAQw9CKwuesXy05-9">
          <mxGeometry relative="1" as="geometry" />
        </mxCell>
        <mxCell id="gEnCtnAQw9CKwuesXy05-10" value="&lt;br&gt;File &lt;br&gt;Server" style="strokeWidth=2;html=1;shape=mxgraph.flowchart.database;whiteSpace=wrap;" vertex="1" parent="WIyWlLk6GJQsqaUBKTNV-1">
          <mxGeometry x="280" y="350" width="60" height="80" as="geometry" />
        </mxCell>
        <mxCell id="gEnCtnAQw9CKwuesXy05-17" value="GOMLF Cloud Server" style="swimlane;whiteSpace=wrap;html=1;" vertex="1" parent="WIyWlLk6GJQsqaUBKTNV-1">
          <mxGeometry x="260" y="280" width="420" height="200" as="geometry" />
        </mxCell>
        <mxCell id="gEnCtnAQw9CKwuesXy05-45" value="&lt;br&gt;ERDDAP&lt;br&gt;Server" style="strokeWidth=2;html=1;shape=mxgraph.flowchart.database;whiteSpace=wrap;" vertex="1" parent="gEnCtnAQw9CKwuesXy05-17">
          <mxGeometry x="310" y="70" width="60" height="80" as="geometry" />
        </mxCell>
        <mxCell id="gEnCtnAQw9CKwuesXy05-50" style="edgeStyle=orthogonalEdgeStyle;rounded=0;orthogonalLoop=1;jettySize=auto;html=1;exitX=0;exitY=0.5;exitDx=0;exitDy=0;entryX=1;entryY=0.5;entryDx=0;entryDy=0;strokeColor=#FF33FF;" edge="1" parent="WIyWlLk6GJQsqaUBKTNV-1" source="gEnCtnAQw9CKwuesXy05-26" target="gEnCtnAQw9CKwuesXy05-49">
          <mxGeometry relative="1" as="geometry" />
        </mxCell>
        <mxCell id="gEnCtnAQw9CKwuesXy05-60" style="edgeStyle=orthogonalEdgeStyle;rounded=0;orthogonalLoop=1;jettySize=auto;html=1;exitX=0.158;exitY=1.05;exitDx=0;exitDy=0;strokeColor=#00CC00;exitPerimeter=0;" edge="1" parent="WIyWlLk6GJQsqaUBKTNV-1" source="gEnCtnAQw9CKwuesXy05-26" target="gEnCtnAQw9CKwuesXy05-28">
          <mxGeometry relative="1" as="geometry">
            <Array as="points">
              <mxPoint x="549" y="244" />
              <mxPoint x="549" y="260" />
              <mxPoint x="140" y="260" />
            </Array>
          </mxGeometry>
        </mxCell>
        <mxCell id="gEnCtnAQw9CKwuesXy05-26" value="Forecast Models" style="shape=hexagon;perimeter=hexagonPerimeter2;whiteSpace=wrap;html=1;fixedSize=1;" vertex="1" parent="WIyWlLk6GJQsqaUBKTNV-1">
          <mxGeometry x="540" y="160" width="120" height="80" as="geometry" />
        </mxCell>
        <mxCell id="gEnCtnAQw9CKwuesXy05-30" value="" style="edgeStyle=orthogonalEdgeStyle;rounded=0;orthogonalLoop=1;jettySize=auto;html=1;strokeColor=#FF33FF;" edge="1" parent="WIyWlLk6GJQsqaUBKTNV-1" source="gEnCtnAQw9CKwuesXy05-27" target="gEnCtnAQw9CKwuesXy05-28">
          <mxGeometry relative="1" as="geometry" />
        </mxCell>
        <mxCell id="gEnCtnAQw9CKwuesXy05-34" value="" style="edgeStyle=orthogonalEdgeStyle;rounded=0;orthogonalLoop=1;jettySize=auto;html=1;entryX=0;entryY=0.5;entryDx=0;entryDy=0;entryPerimeter=0;strokeColor=#FF33FF;" edge="1" parent="WIyWlLk6GJQsqaUBKTNV-1" source="gEnCtnAQw9CKwuesXy05-28" target="gEnCtnAQw9CKwuesXy05-10">
          <mxGeometry relative="1" as="geometry">
            <mxPoint x="230" y="480" as="targetPoint" />
          </mxGeometry>
        </mxCell>
        <mxCell id="gEnCtnAQw9CKwuesXy05-28" value="Deck Data Hub" style="whiteSpace=wrap;html=1;aspect=fixed;" vertex="1" parent="WIyWlLk6GJQsqaUBKTNV-1">
          <mxGeometry x="70" y="440" width="80" height="80" as="geometry" />
        </mxCell>
        <mxCell id="gEnCtnAQw9CKwuesXy05-29" value="Fishing Vessel" style="swimlane;whiteSpace=wrap;html=1;" vertex="1" parent="WIyWlLk6GJQsqaUBKTNV-1">
          <mxGeometry x="10" y="270" width="190" height="430" as="geometry" />
        </mxCell>
        <mxCell id="gEnCtnAQw9CKwuesXy05-39" value="Fisherman&lt;br&gt;Participant" style="shape=umlActor;verticalLabelPosition=bottom;verticalAlign=top;html=1;outlineConnect=0;" vertex="1" parent="gEnCtnAQw9CKwuesXy05-29">
          <mxGeometry x="85" y="300" width="30" height="60" as="geometry" />
        </mxCell>
        <mxCell id="gEnCtnAQw9CKwuesXy05-27" value="Sensor" style="whiteSpace=wrap;html=1;aspect=fixed;" vertex="1" parent="gEnCtnAQw9CKwuesXy05-29">
          <mxGeometry x="20" y="40" width="80" height="80" as="geometry" />
        </mxCell>
        <mxCell id="gEnCtnAQw9CKwuesXy05-35" value="" style="edgeStyle=orthogonalEdgeStyle;rounded=0;orthogonalLoop=1;jettySize=auto;html=1;strokeColor=#FF33FF;exitX=0.5;exitY=0;exitDx=0;exitDy=0;exitPerimeter=0;" edge="1" parent="WIyWlLk6GJQsqaUBKTNV-1" source="gEnCtnAQw9CKwuesXy05-45" target="gEnCtnAQw9CKwuesXy05-26">
          <mxGeometry relative="1" as="geometry">
            <mxPoint x="600" y="430" as="sourcePoint" />
          </mxGeometry>
        </mxCell>
        <mxCell id="gEnCtnAQw9CKwuesXy05-36" value="Stock Assessments" style="shape=hexagon;perimeter=hexagonPerimeter2;whiteSpace=wrap;html=1;fixedSize=1;" vertex="1" parent="WIyWlLk6GJQsqaUBKTNV-1">
          <mxGeometry x="690" y="200" width="120" height="80" as="geometry" />
        </mxCell>
        <mxCell id="gEnCtnAQw9CKwuesXy05-38" value="" style="edgeStyle=orthogonalEdgeStyle;rounded=0;orthogonalLoop=1;jettySize=auto;html=1;entryX=0.5;entryY=1;entryDx=0;entryDy=0;strokeColor=#FF33FF;exitX=1;exitY=0.5;exitDx=0;exitDy=0;exitPerimeter=0;" edge="1" parent="WIyWlLk6GJQsqaUBKTNV-1" source="gEnCtnAQw9CKwuesXy05-45" target="gEnCtnAQw9CKwuesXy05-36">
          <mxGeometry relative="1" as="geometry">
            <mxPoint x="640" y="390" as="sourcePoint" />
            <mxPoint x="720" y="390" as="targetPoint" />
          </mxGeometry>
        </mxCell>
        <mxCell id="gEnCtnAQw9CKwuesXy05-41" value="" style="endArrow=classic;html=1;rounded=0;exitX=0.5;exitY=1;exitDx=0;exitDy=0;entryX=0.5;entryY=0;entryDx=0;entryDy=0;entryPerimeter=0;" edge="1" parent="WIyWlLk6GJQsqaUBKTNV-1" source="gEnCtnAQw9CKwuesXy05-28" target="gEnCtnAQw9CKwuesXy05-39">
          <mxGeometry width="50" height="50" relative="1" as="geometry">
            <mxPoint x="390" y="410" as="sourcePoint" />
            <mxPoint x="440" y="360" as="targetPoint" />
          </mxGeometry>
        </mxCell>
        <mxCell id="gEnCtnAQw9CKwuesXy05-43" value="Other&lt;br&gt;Maritime&lt;br&gt;Stakeholders" style="shape=umlActor;verticalLabelPosition=bottom;verticalAlign=top;html=1;outlineConnect=0;" vertex="1" parent="WIyWlLk6GJQsqaUBKTNV-1">
          <mxGeometry x="250" y="130" width="30" height="60" as="geometry" />
        </mxCell>
        <mxCell id="gEnCtnAQw9CKwuesXy05-63" style="edgeStyle=orthogonalEdgeStyle;rounded=0;orthogonalLoop=1;jettySize=auto;html=1;exitX=0;exitY=0.5;exitDx=0;exitDy=0;" edge="1" parent="WIyWlLk6GJQsqaUBKTNV-1" source="gEnCtnAQw9CKwuesXy05-49" target="gEnCtnAQw9CKwuesXy05-43">
          <mxGeometry relative="1" as="geometry" />
        </mxCell>
        <mxCell id="gEnCtnAQw9CKwuesXy05-49" value="Public&amp;nbsp;&lt;br&gt;Data&amp;nbsp;&lt;br&gt;Portal" style="rhombus;whiteSpace=wrap;html=1;" vertex="1" parent="WIyWlLk6GJQsqaUBKTNV-1">
          <mxGeometry x="320" y="120" width="80" height="80" as="geometry" />
        </mxCell>
        <mxCell id="gEnCtnAQw9CKwuesXy05-52" value="Private&lt;br&gt;Data&lt;br&gt;Portal" style="rhombus;whiteSpace=wrap;html=1;" vertex="1" parent="WIyWlLk6GJQsqaUBKTNV-1">
          <mxGeometry x="370" y="550" width="80" height="80" as="geometry" />
        </mxCell>
        <mxCell id="gEnCtnAQw9CKwuesXy05-55" value="" style="edgeStyle=orthogonalEdgeStyle;rounded=0;orthogonalLoop=1;jettySize=auto;html=1;entryX=0.5;entryY=0;entryDx=0;entryDy=0;strokeColor=#FF33FF;exitX=0.5;exitY=1;exitDx=0;exitDy=0;exitPerimeter=0;" edge="1" parent="WIyWlLk6GJQsqaUBKTNV-1" source="gEnCtnAQw9CKwuesXy05-9" target="gEnCtnAQw9CKwuesXy05-52">
          <mxGeometry relative="1" as="geometry">
            <mxPoint x="450" y="400" as="sourcePoint" />
            <mxPoint x="580" y="400" as="targetPoint" />
          </mxGeometry>
        </mxCell>
        <mxCell id="gEnCtnAQw9CKwuesXy05-56" value="QAQC" style="edgeLabel;html=1;align=center;verticalAlign=middle;resizable=0;points=[];" vertex="1" connectable="0" parent="gEnCtnAQw9CKwuesXy05-55">
          <mxGeometry x="0.1333" y="-4" relative="1" as="geometry">
            <mxPoint as="offset" />
          </mxGeometry>
        </mxCell>
        <mxCell id="gEnCtnAQw9CKwuesXy05-59" style="edgeStyle=orthogonalEdgeStyle;rounded=0;orthogonalLoop=1;jettySize=auto;html=1;exitX=0;exitY=0.5;exitDx=0;exitDy=0;entryX=1;entryY=0.3333333333333333;entryDx=0;entryDy=0;entryPerimeter=0;" edge="1" parent="WIyWlLk6GJQsqaUBKTNV-1" source="gEnCtnAQw9CKwuesXy05-52" target="gEnCtnAQw9CKwuesXy05-39">
          <mxGeometry relative="1" as="geometry" />
        </mxCell>
      </root>
    </mxGraphModel>
  </diagram>
</mxfile>
